<svg width="293" height="59" viewBox="0 0 293 59" fill="none" xmlns="http://www.w3.org/2000/svg">
<g clip-path="url(#clip0_106_861)">
<path d="M17.6702 24.6288L29.0525 13.247L40.4409 24.6348L47.0639 18.0118L29.0525 0L11.0472 18.0058L17.6702 24.6288Z" fill="black"/>
<path d="M12.9931 29.3045L6.37015 22.6815L-0.253088 29.3048L6.36982 35.9277L12.9931 29.3045Z" fill="black"/>
<path d="M17.6702 33.9822L29.0525 45.364L40.4404 33.9766L47.0671 40.5959L47.0639 40.5996L29.0525 58.611L11.0467 40.6057L11.0375 40.5964L17.6702 33.9822Z" fill="black"/>
<path d="M51.7355 35.9308L58.3587 29.3076L51.7358 22.6847L45.1126 29.3079L51.7355 35.9308Z" fill="black"/>
<path d="M35.7704 29.302H35.7732L29.0525 22.5813L24.0858 27.548H24.0854L23.515 28.1188L22.3378 29.296L22.3286 29.3053L22.3378 29.315L29.0525 36.0297L35.7732 29.309L35.7765 29.3053L35.7704 29.302Z" fill="black"/>
<path d="M68.6837 14.202H83.0885C86.6636 14.202 89.3671 15.1195 91.1993 16.9545C92.6172 18.3757 93.326 20.1371 93.326 22.2383V22.3272C93.326 23.2151 93.2163 23.9997 92.9954 24.6802C92.7751 25.3617 92.4807 25.975 92.1127 26.5227C91.7456 27.0708 91.3187 27.5517 90.8336 27.9656C90.348 28.3804 89.8263 28.7359 89.2675 29.0312C91.0646 29.7127 92.4793 30.6371 93.5107 31.8065C94.5416 32.9763 95.0578 34.5969 95.0578 36.6685V36.7569C95.0578 38.1781 94.7846 39.4211 94.2379 40.4872C93.6912 41.5523 92.908 42.4407 91.8881 43.1513C90.8683 43.8619 89.642 44.3942 88.2088 44.7497C86.7756 45.1048 85.1873 45.2821 83.4444 45.2821H68.6837V14.202ZM81.6483 26.7671C83.1584 26.7671 84.3573 26.5088 85.2447 25.9903C86.1326 25.4723 86.5766 24.6358 86.5766 23.4817V23.3928C86.5766 22.3573 86.1914 21.5657 85.422 21.0176C84.6522 20.47 83.5421 20.1959 82.0923 20.1959H75.3433V26.7671H81.6483ZM83.469 39.2887C84.9786 39.2887 86.1618 39.0155 87.021 38.4674C87.8792 37.9198 88.3088 37.0685 88.3088 35.914V35.8255C88.3088 34.7895 87.9089 33.9683 87.1099 33.3609C86.3104 32.755 85.023 32.4513 83.2468 32.4513H75.3433V39.2891L83.469 39.2887Z" fill="black"/>
<path d="M103.637 14.202H110.475V45.283H103.637V14.202Z" fill="black"/>
<path d="M120.832 14.202H127.136L141.7 33.3392V14.202H148.449V45.283H142.633L127.58 25.5246V45.283H120.832V14.202Z" fill="black"/>
<path d="M169.151 13.9803H175.455L188.776 45.283H181.627L178.786 38.3124H165.643L162.801 45.283H155.829L169.151 13.9803ZM176.344 32.2731L172.214 22.1943L168.086 32.2731H176.344Z" fill="black"/>
<path d="M196.158 14.202H202.463L217.026 33.3392V14.202H223.775V45.283H217.959L202.907 25.5246V45.283H196.158V14.202Z" fill="black"/>
<path d="M248.384 45.8154C246.104 45.8154 243.988 45.4006 242.034 44.5724C240.08 43.7443 238.393 42.6115 236.972 41.1755C235.551 39.74 234.441 38.0452 233.643 36.0917C232.843 34.1377 232.444 32.0509 232.444 29.8307V29.7423C232.444 27.5221 232.843 25.4431 233.643 23.5039C234.441 21.5652 235.551 19.8631 236.972 18.3979C238.393 16.9328 240.095 15.7778 242.078 14.9343C244.061 14.0909 246.253 13.6692 248.65 13.6692C250.1 13.6692 251.424 13.7881 252.623 14.0242C253.822 14.2617 254.909 14.5867 255.887 15.001C256.864 15.4158 257.766 15.919 258.596 16.5106C259.423 17.1031 260.194 17.754 260.904 18.4646L256.554 23.4817C255.338 22.3869 254.103 21.5277 252.846 20.9065C251.587 20.2852 250.174 19.9742 248.605 19.9742C247.303 19.9742 246.096 20.226 244.987 20.7292C243.877 21.2324 242.922 21.9277 242.123 22.8156C241.324 23.7035 240.702 24.7325 240.257 25.9014C239.814 27.0712 239.593 28.3216 239.593 29.6534V29.7418C239.593 31.0736 239.814 32.3323 240.257 33.5155C240.702 34.7002 241.315 35.7357 242.101 36.6236C242.884 37.5115 243.832 38.2151 244.942 38.7331C246.053 39.2516 247.273 39.5099 248.605 39.5099C250.382 39.5099 251.883 39.1845 253.111 38.5332C254.34 37.8827 255.562 36.9944 256.775 35.869L261.126 40.2649C260.327 41.1237 259.497 41.8935 258.64 42.5735C257.781 43.255 256.842 43.8392 255.82 44.328C254.799 44.8159 253.681 45.1867 252.468 45.4376C251.254 45.689 249.893 45.8154 248.384 45.8154Z" fill="black"/>
<path d="M269.174 14.202H292.573V20.2853H275.923V26.5902H290.576V32.673H275.923V39.2002H292.796V45.283H269.174V14.202Z" fill="black"/>
</g>
<defs>
<clipPath id="clip0_106_861">
<rect width="292.573" height="58.611" fill="white"/>
</clipPath>
</defs>
</svg>
