<svg width="214" height="80" viewBox="0 0 214 80" fill="none" xmlns="http://www.w3.org/2000/svg">
<path d="M14 18L12.6 16.55L16.15 13H4V11H16.15L12.6 7.45L14 6L20 12L14 18Z" fill="white"/>
<path d="M14 46L12.6 44.55L16.15 41H4V39H16.15L12.6 35.45L14 34L20 40L14 46Z" fill="white"/>
<path d="M14 74L12.6 72.55L16.15 69H4V67H16.15L12.6 63.45L14 62L20 68L14 74Z" fill="white"/>
<path d="M47.362 20.288C45.454 20.288 43.858 19.646 42.574 18.362C41.302 17.078 40.666 15.476 40.666 13.556C40.666 11.636 41.302 10.04 42.574 8.768C43.846 7.472 45.442 6.824 47.362 6.824C49.306 6.824 50.884 7.526 52.096 8.93L50.908 10.082C49.984 8.966 48.802 8.408 47.362 8.408C45.934 8.408 44.74 8.888 43.78 9.848C42.832 10.796 42.358 12.032 42.358 13.556C42.358 15.08 42.832 16.316 43.78 17.264C44.74 18.224 45.934 18.704 47.362 18.704C48.862 18.704 50.164 18.074 51.268 16.814L52.474 17.984C51.862 18.716 51.112 19.286 50.224 19.694C49.336 20.09 48.382 20.288 47.362 20.288ZM55.6015 12.692V14.852H58.2475C58.5475 14.852 58.8115 14.75 59.0395 14.546C59.2675 14.33 59.3815 14.072 59.3815 13.772C59.3815 13.472 59.2675 13.22 59.0395 13.016C58.8115 12.8 58.5475 12.692 58.2475 12.692H55.6015ZM59.6695 17.336C59.6695 17.024 59.5435 16.754 59.2915 16.526C59.0515 16.298 58.7695 16.184 58.4455 16.184H55.6015V18.488H58.4455C58.7815 18.488 59.0695 18.38 59.3095 18.164C59.5495 17.936 59.6695 17.66 59.6695 17.336ZM53.9455 20V11.18H58.3555C59.0875 11.18 59.7175 11.426 60.2455 11.918C60.7735 12.41 61.0375 12.998 61.0375 13.682C61.0375 14.498 60.6535 15.086 59.8855 15.446V15.518C60.8695 15.89 61.3615 16.526 61.3615 17.426C61.3615 18.146 61.0915 18.758 60.5515 19.262C59.9995 19.754 59.3515 20 58.6075 20H53.9455ZM66.7649 20.288C65.4689 20.288 64.4009 19.844 63.5609 18.956C62.7209 18.068 62.3009 16.946 62.3009 15.59C62.3009 14.246 62.7089 13.13 63.5249 12.242C64.3409 11.342 65.3849 10.892 66.6569 10.892C67.9649 10.892 69.0029 11.318 69.7709 12.17C70.5509 13.01 70.9409 14.192 70.9409 15.716L70.9229 15.896H63.9929C64.0169 16.76 64.3049 17.456 64.8569 17.984C65.4089 18.512 66.0689 18.776 66.8369 18.776C67.8929 18.776 68.7209 18.248 69.3209 17.192L70.7969 17.912C70.4009 18.656 69.8489 19.238 69.1409 19.658C68.4449 20.078 67.6529 20.288 66.7649 20.288ZM64.1189 14.528H69.1769C69.1289 13.916 68.8769 13.412 68.4209 13.016C67.9769 12.608 67.3769 12.404 66.6209 12.404C65.9969 12.404 65.4569 12.596 65.0009 12.98C64.5569 13.364 64.2629 13.88 64.1189 14.528ZM79.4393 11.18V20H77.7833V16.652C77.2553 16.988 76.4813 17.156 75.4613 17.156C74.4653 17.156 73.6433 16.85 72.9953 16.238C72.3473 15.614 72.0233 14.828 72.0233 13.88V11.18H73.7153V13.88C73.7153 14.42 73.8953 14.852 74.2553 15.176C74.6153 15.488 75.1013 15.644 75.7133 15.644C76.6493 15.644 77.3393 15.458 77.7833 15.086V11.18H79.4393ZM89.2673 11.18V20H87.6113V16.364H83.1113V20H81.4553V11.18H83.1113V14.816H87.6113V11.18H89.2673ZM91.2814 20V11.18H92.9374V14.132H95.6914C96.5314 14.132 97.2694 14.42 97.9054 14.996C98.5294 15.548 98.8414 16.238 98.8414 17.066C98.8414 17.882 98.5294 18.578 97.9054 19.154C97.2694 19.718 96.5314 20 95.6914 20H91.2814ZM101.721 11.18V20H100.065V11.18H101.721ZM92.9374 15.644V18.488H95.6374C96.0454 18.488 96.3994 18.35 96.6994 18.074C96.9994 17.798 97.1494 17.462 97.1494 17.066C97.1494 16.874 97.1074 16.694 97.0234 16.526C96.9394 16.346 96.8254 16.196 96.6814 16.076C96.5494 15.944 96.3934 15.842 96.2134 15.77C96.0334 15.686 95.8414 15.644 95.6374 15.644H92.9374ZM107.616 20.288C106.32 20.288 105.252 19.844 104.412 18.956C103.572 18.068 103.152 16.946 103.152 15.59C103.152 14.246 103.56 13.13 104.376 12.242C105.192 11.342 106.236 10.892 107.508 10.892C108.816 10.892 109.854 11.318 110.622 12.17C111.402 13.01 111.792 14.192 111.792 15.716L111.774 15.896H104.844C104.868 16.76 105.156 17.456 105.708 17.984C106.26 18.512 106.92 18.776 107.688 18.776C108.744 18.776 109.572 18.248 110.172 17.192L111.648 17.912C111.252 18.656 110.7 19.238 109.992 19.658C109.296 20.078 108.504 20.288 107.616 20.288ZM104.97 14.528H110.028C109.98 13.916 109.728 13.412 109.272 13.016C108.828 12.608 108.228 12.404 107.472 12.404C106.848 12.404 106.308 12.596 105.852 12.98C105.408 13.364 105.114 13.88 104.97 14.528ZM49.252 43.562C49.252 44.69 48.838 45.596 48.01 46.28C47.17 46.952 46.15 47.288 44.95 47.288C43.882 47.288 42.94 46.976 42.124 46.352C41.308 45.728 40.744 44.876 40.432 43.796L42.016 43.148C42.124 43.532 42.274 43.88 42.466 44.192C42.658 44.504 42.88 44.774 43.132 45.002C43.396 45.218 43.684 45.392 43.996 45.524C44.308 45.644 44.638 45.704 44.986 45.704C45.742 45.704 46.36 45.512 46.84 45.128C47.32 44.732 47.56 44.21 47.56 43.562C47.56 43.022 47.362 42.56 46.966 42.176C46.594 41.804 45.898 41.444 44.878 41.096C43.846 40.724 43.204 40.472 42.952 40.34C41.584 39.644 40.9 38.618 40.9 37.262C40.9 36.314 41.278 35.504 42.034 34.832C42.802 34.16 43.744 33.824 44.86 33.824C45.844 33.824 46.696 34.076 47.416 34.58C48.136 35.072 48.616 35.69 48.856 36.434L47.308 37.082C47.164 36.602 46.876 36.206 46.444 35.894C46.024 35.57 45.508 35.408 44.896 35.408C44.248 35.408 43.702 35.588 43.258 35.948C42.814 36.284 42.592 36.722 42.592 37.262C42.592 37.706 42.766 38.09 43.114 38.414C43.498 38.738 44.332 39.122 45.616 39.566C46.924 40.01 47.854 40.556 48.406 41.204C48.97 41.84 49.252 42.626 49.252 43.562ZM52.6132 47H50.9572V38.18H52.5412V39.404H52.6132C52.8652 38.972 53.2492 38.612 53.7652 38.324C54.2932 38.036 54.8152 37.892 55.3312 37.892C55.9792 37.892 56.5492 38.042 57.0412 38.342C57.5332 38.642 57.8932 39.056 58.1212 39.584C58.8532 38.456 59.8672 37.892 61.1632 37.892C62.1832 37.892 62.9692 38.204 63.5212 38.828C64.0732 39.452 64.3492 40.34 64.3492 41.492V47H62.6932V41.744C62.6932 40.916 62.5432 40.322 62.2432 39.962C61.9432 39.59 61.4392 39.404 60.7312 39.404C60.0952 39.404 59.5612 39.674 59.1292 40.214C58.6972 40.754 58.4812 41.39 58.4812 42.122V47H56.8252V41.744C56.8252 40.916 56.6752 40.322 56.3752 39.962C56.0752 39.59 55.5712 39.404 54.8632 39.404C54.2272 39.404 53.6932 39.674 53.2612 40.214C52.8292 40.754 52.6132 41.39 52.6132 42.122V47ZM67.4035 44.3C67.4035 44.732 67.5835 45.092 67.9435 45.38C68.3155 45.668 68.7475 45.812 69.2395 45.812C69.9355 45.812 70.5535 45.554 71.0935 45.038C71.6455 44.522 71.9215 43.916 71.9215 43.22C71.4055 42.812 70.6855 42.608 69.7615 42.608C69.0895 42.608 68.5255 42.77 68.0695 43.094C67.6255 43.418 67.4035 43.82 67.4035 44.3ZM69.5455 37.892C70.7695 37.892 71.7355 38.222 72.4435 38.882C73.1515 39.53 73.5055 40.424 73.5055 41.564V47H71.9215V45.776H71.8495C71.1655 46.784 70.2535 47.288 69.1135 47.288C68.1415 47.288 67.3255 47 66.6655 46.424C66.0175 45.848 65.6935 45.128 65.6935 44.264C65.6935 43.352 66.0355 42.626 66.7195 42.086C67.4155 41.546 68.3395 41.276 69.4915 41.276C70.4755 41.276 71.2855 41.456 71.9215 41.816V41.438C71.9215 40.862 71.6935 40.376 71.2375 39.98C70.7815 39.572 70.2475 39.368 69.6355 39.368C68.7115 39.368 67.9795 39.758 67.4395 40.538L65.9815 39.62C66.7855 38.468 67.9735 37.892 69.5455 37.892ZM85.7052 47.144C84.9852 47.144 84.3852 46.922 83.9052 46.478C83.4372 46.034 83.1972 45.416 83.1852 44.624V39.692H81.6372V38.18H83.1852V35.48H84.8412V38.18H87.0012V39.692H84.8412V44.084C84.8412 44.672 84.9552 45.074 85.1832 45.29C85.4112 45.494 85.6692 45.596 85.9572 45.596C86.0892 45.596 86.2152 45.584 86.3352 45.56C86.4672 45.524 86.5872 45.482 86.6952 45.434L87.2172 46.91C86.7852 47.066 86.2812 47.144 85.7052 47.144ZM75.3732 38.18H76.9572V39.62H77.0292C77.5212 38.492 78.5352 37.928 80.0712 37.928L80.4132 37.964V39.692L79.6752 39.62C78.9072 39.62 78.2712 39.86 77.7672 40.34C77.2752 40.808 77.0292 41.408 77.0292 42.14V47H75.3732V38.18ZM94.4911 47H92.8351V34.112H94.4911L98.9731 41.96H99.0451L103.527 34.112H105.183V47H103.527V39.35L103.599 37.19H103.527L99.4951 44.264H98.5231L94.4911 37.19H94.4191L94.4911 39.35V47ZM106.984 42.59C106.984 41.234 107.41 40.112 108.262 39.224C109.126 38.336 110.212 37.892 111.52 37.892C112.828 37.892 113.908 38.336 114.76 39.224C115.624 40.112 116.056 41.234 116.056 42.59C116.056 43.958 115.624 45.08 114.76 45.956C113.908 46.844 112.828 47.288 111.52 47.288C110.212 47.288 109.126 46.844 108.262 45.956C107.41 45.068 106.984 43.946 106.984 42.59ZM108.64 42.59C108.64 43.538 108.916 44.306 109.468 44.894C110.02 45.482 110.704 45.776 111.52 45.776C112.336 45.776 113.02 45.482 113.572 44.894C114.124 44.306 114.4 43.538 114.4 42.59C114.4 41.654 114.124 40.892 113.572 40.304C113.008 39.704 112.324 39.404 111.52 39.404C110.716 39.404 110.032 39.704 109.468 40.304C108.916 40.892 108.64 41.654 108.64 42.59ZM117.385 38.18H118.969V39.404H119.041C119.293 38.972 119.677 38.612 120.193 38.324C120.721 38.036 121.267 37.892 121.831 37.892C122.911 37.892 123.739 38.204 124.315 38.828C124.903 39.44 125.197 40.316 125.197 41.456V47H123.541V41.564C123.505 40.124 122.779 39.404 121.363 39.404C120.703 39.404 120.151 39.674 119.707 40.214C119.263 40.742 119.041 41.378 119.041 42.122V47H117.385V38.18ZM131.101 47.288C129.805 47.288 128.737 46.844 127.897 45.956C127.057 45.068 126.637 43.946 126.637 42.59C126.637 41.246 127.045 40.13 127.861 39.242C128.677 38.342 129.721 37.892 130.993 37.892C132.301 37.892 133.339 38.318 134.107 39.17C134.887 40.01 135.277 41.192 135.277 42.716L135.259 42.896H128.329C128.353 43.76 128.641 44.456 129.193 44.984C129.745 45.512 130.405 45.776 131.173 45.776C132.229 45.776 133.057 45.248 133.657 44.192L135.133 44.912C134.737 45.656 134.185 46.238 133.477 46.658C132.781 47.078 131.989 47.288 131.101 47.288ZM128.455 41.528H133.513C133.465 40.916 133.213 40.412 132.757 40.016C132.313 39.608 131.713 39.404 130.957 39.404C130.333 39.404 129.793 39.596 129.337 39.98C128.893 40.364 128.599 40.88 128.455 41.528ZM144.499 38.18L138.973 50.888H137.263L139.315 46.442L135.679 38.18H137.479L140.107 44.516H140.143L142.699 38.18H144.499ZM153.855 45.776C154.647 45.776 155.313 45.476 155.853 44.876C156.393 44.288 156.663 43.526 156.663 42.59C156.663 41.666 156.393 40.904 155.853 40.304C155.313 39.704 154.647 39.404 153.855 39.404C153.051 39.404 152.379 39.704 151.839 40.304C151.311 40.904 151.047 41.666 151.047 42.59C151.047 43.526 151.311 44.294 151.839 44.894C152.379 45.482 153.051 45.776 153.855 45.776ZM154.125 47.288C153.477 47.288 152.883 47.15 152.343 46.874C151.815 46.598 151.407 46.232 151.119 45.776H151.047L151.119 47V50.888H149.463V38.18H151.047V39.404H151.119C151.407 38.948 151.815 38.582 152.343 38.306C152.883 38.03 153.477 37.892 154.125 37.892C155.289 37.892 156.273 38.348 157.077 39.26C157.905 40.184 158.319 41.294 158.319 42.59C158.319 43.898 157.905 45.008 157.077 45.92C156.273 46.832 155.289 47.288 154.125 47.288ZM161.042 44.3C161.042 44.732 161.222 45.092 161.582 45.38C161.954 45.668 162.386 45.812 162.878 45.812C163.574 45.812 164.192 45.554 164.732 45.038C165.284 44.522 165.56 43.916 165.56 43.22C165.044 42.812 164.324 42.608 163.4 42.608C162.728 42.608 162.164 42.77 161.708 43.094C161.264 43.418 161.042 43.82 161.042 44.3ZM163.184 37.892C164.408 37.892 165.374 38.222 166.082 38.882C166.79 39.53 167.144 40.424 167.144 41.564V47H165.56V45.776H165.488C164.804 46.784 163.892 47.288 162.752 47.288C161.78 47.288 160.964 47 160.304 46.424C159.656 45.848 159.332 45.128 159.332 44.264C159.332 43.352 159.674 42.626 160.358 42.086C161.054 41.546 161.978 41.276 163.13 41.276C164.114 41.276 164.924 41.456 165.56 41.816V41.438C165.56 40.862 165.332 40.376 164.876 39.98C164.42 39.572 163.886 39.368 163.274 39.368C162.35 39.368 161.618 39.758 161.078 40.538L159.62 39.62C160.424 38.468 161.612 37.892 163.184 37.892ZM178.088 47.144C177.368 47.144 176.768 46.922 176.288 46.478C175.82 46.034 175.58 45.416 175.568 44.624V39.692H171.464V44.138C171.464 44.654 171.566 45.026 171.77 45.254C171.986 45.482 172.238 45.596 172.526 45.596C172.802 45.596 173.066 45.542 173.318 45.434L173.84 46.91C173.408 47.066 172.904 47.144 172.328 47.144C171.608 47.144 171.008 46.922 170.528 46.478C170.06 46.034 169.82 45.416 169.808 44.624V39.692H168.26V38.18H169.808V35.48H171.464V38.18H175.568V35.48H177.224V38.18H179.384V39.692H177.224V44.084C177.224 44.672 177.338 45.074 177.566 45.29C177.794 45.494 178.052 45.596 178.34 45.596C178.472 45.596 178.598 45.584 178.718 45.56C178.85 45.524 178.97 45.482 179.078 45.434L179.6 46.91C179.168 47.066 178.664 47.144 178.088 47.144ZM184.837 47.288C183.541 47.288 182.473 46.844 181.633 45.956C180.793 45.068 180.373 43.946 180.373 42.59C180.373 41.246 180.781 40.13 181.597 39.242C182.413 38.342 183.457 37.892 184.729 37.892C186.037 37.892 187.075 38.318 187.843 39.17C188.623 40.01 189.013 41.192 189.013 42.716L188.995 42.896H182.065C182.089 43.76 182.377 44.456 182.929 44.984C183.481 45.512 184.141 45.776 184.909 45.776C185.965 45.776 186.793 45.248 187.393 44.192L188.869 44.912C188.473 45.656 187.921 46.238 187.213 46.658C186.517 47.078 185.725 47.288 184.837 47.288ZM182.191 41.528H187.249C187.201 40.916 186.949 40.412 186.493 40.016C186.049 39.608 185.449 39.404 184.693 39.404C184.069 39.404 183.529 39.596 183.073 39.98C182.629 40.364 182.335 40.88 182.191 41.528ZM192.184 47H190.528V38.18H192.112V39.62H192.184C192.352 39.152 192.694 38.756 193.21 38.432C193.738 38.096 194.254 37.928 194.758 37.928C195.238 37.928 195.646 38 195.982 38.144L195.478 39.746C195.274 39.662 194.95 39.62 194.506 39.62C193.882 39.62 193.336 39.872 192.868 40.376C192.412 40.88 192.184 41.468 192.184 42.14V47ZM197.067 38.18H198.651V39.404H198.723C198.975 38.972 199.359 38.612 199.875 38.324C200.403 38.036 200.949 37.892 201.513 37.892C202.593 37.892 203.421 38.204 203.997 38.828C204.585 39.44 204.879 40.316 204.879 41.456V47H203.223V41.564C203.187 40.124 202.461 39.404 201.045 39.404C200.385 39.404 199.833 39.674 199.389 40.214C198.945 40.742 198.723 41.378 198.723 42.122V47H197.067V38.18ZM213.485 44.552C213.485 45.32 213.149 45.968 212.477 46.496C211.805 47.024 210.959 47.288 209.939 47.288C209.051 47.288 208.271 47.06 207.599 46.604C206.927 46.136 206.447 45.524 206.159 44.768L207.635 44.138C207.851 44.666 208.163 45.08 208.571 45.38C208.991 45.668 209.447 45.812 209.939 45.812C210.467 45.812 210.905 45.698 211.253 45.47C211.613 45.242 211.793 44.972 211.793 44.66C211.793 44.096 211.361 43.682 210.497 43.418L208.985 43.04C207.269 42.608 206.411 41.78 206.411 40.556C206.411 39.752 206.735 39.11 207.383 38.63C208.043 38.138 208.883 37.892 209.903 37.892C210.683 37.892 211.385 38.078 212.009 38.45C212.645 38.822 213.089 39.32 213.341 39.944L211.865 40.556C211.697 40.184 211.421 39.896 211.037 39.692C210.665 39.476 210.245 39.368 209.777 39.368C209.345 39.368 208.955 39.476 208.607 39.692C208.271 39.908 208.103 40.172 208.103 40.484C208.103 40.988 208.577 41.348 209.525 41.564L210.857 41.906C212.609 42.338 213.485 43.22 213.485 44.552ZM48.046 74.864H46.39V72.956C44.698 72.8 43.318 72.224 42.25 71.228C41.194 70.244 40.666 69.02 40.666 67.556C40.666 66.092 41.194 64.868 42.25 63.884C43.318 62.888 44.698 62.312 46.39 62.156V60.248H48.046V62.156C49.738 62.312 51.118 62.888 52.186 63.884C53.242 64.868 53.77 66.092 53.77 67.556C53.77 69.02 53.242 70.244 52.186 71.228C51.118 72.224 49.738 72.8 48.046 72.956V74.864ZM48.046 71.408C49.306 71.276 50.29 70.868 50.998 70.184C51.718 69.488 52.078 68.612 52.078 67.556C52.078 66.5 51.718 65.63 50.998 64.946C50.29 64.25 49.306 63.836 48.046 63.704V71.408ZM46.39 63.704C45.778 63.776 45.22 63.92 44.716 64.136C44.224 64.34 43.798 64.61 43.438 64.946C43.09 65.282 42.82 65.672 42.628 66.116C42.448 66.56 42.358 67.04 42.358 67.556C42.358 68.084 42.448 68.57 42.628 69.014C42.82 69.446 43.09 69.83 43.438 70.166C43.798 70.502 44.224 70.778 44.716 70.994C45.22 71.198 45.778 71.336 46.39 71.408V63.704ZM61.5078 65.18H63.1638V74H61.5078V69.392L61.5798 67.664H61.5078L57.0078 74H55.3518V65.18H57.0078V69.788L56.9358 71.516H57.0078L61.5078 65.18ZM71.1539 65.18V66.692H66.8339V74H65.1779V65.18H71.1539ZM80.4799 65.18L74.9539 77.888H73.2439L75.2959 73.442L71.6599 65.18H73.4599L76.0879 71.516H76.1239L78.6799 65.18H80.4799ZM85.8807 72.776C86.6727 72.776 87.3387 72.476 87.8787 71.876C88.4187 71.288 88.6887 70.526 88.6887 69.59C88.6887 68.666 88.4187 67.904 87.8787 67.304C87.3387 66.704 86.6727 66.404 85.8807 66.404C85.0767 66.404 84.4047 66.704 83.8647 67.304C83.3367 67.904 83.0727 68.666 83.0727 69.59C83.0727 70.526 83.3367 71.294 83.8647 71.894C84.4047 72.482 85.0767 72.776 85.8807 72.776ZM86.1507 74.288C85.5027 74.288 84.9087 74.15 84.3687 73.874C83.8407 73.598 83.4327 73.232 83.1447 72.776H83.0727L83.1447 74V77.888H81.4887V65.18H83.0727V66.404H83.1447C83.4327 65.948 83.8407 65.582 84.3687 65.306C84.9087 65.03 85.5027 64.892 86.1507 64.892C87.3147 64.892 88.2987 65.348 89.1027 66.26C89.9307 67.184 90.3447 68.294 90.3447 69.59C90.3447 70.898 89.9307 72.008 89.1027 72.92C88.2987 73.832 87.3147 74.288 86.1507 74.288ZM99.5856 65.18V74H97.9296V70.364H93.4296V74H91.7736V65.18H93.4296V68.816H97.9296V65.18H99.5856ZM101.6 74V65.18H103.256V68.132H106.01C106.85 68.132 107.588 68.42 108.224 68.996C108.848 69.548 109.16 70.238 109.16 71.066C109.16 71.882 108.848 72.578 108.224 73.154C107.588 73.718 106.85 74 106.01 74H101.6ZM112.04 65.18V74H110.384V65.18H112.04ZM103.256 69.644V72.488H105.956C106.364 72.488 106.718 72.35 107.018 72.074C107.318 71.798 107.468 71.462 107.468 71.066C107.468 70.874 107.426 70.694 107.342 70.526C107.258 70.346 107.144 70.196 107 70.076C106.868 69.944 106.712 69.842 106.532 69.77C106.352 69.686 106.16 69.644 105.956 69.644H103.256ZM117.935 74.288C116.639 74.288 115.571 73.844 114.731 72.956C113.891 72.068 113.471 70.946 113.471 69.59C113.471 68.246 113.879 67.13 114.695 66.242C115.511 65.342 116.555 64.892 117.827 64.892C119.135 64.892 120.173 65.318 120.941 66.17C121.721 67.01 122.111 68.192 122.111 69.716L122.093 69.896H115.163C115.187 70.76 115.475 71.456 116.027 71.984C116.579 72.512 117.239 72.776 118.007 72.776C119.063 72.776 119.891 72.248 120.491 71.192L121.967 71.912C121.571 72.656 121.019 73.238 120.311 73.658C119.615 74.078 118.823 74.288 117.935 74.288ZM115.289 68.528H120.347C120.299 67.916 120.047 67.412 119.591 67.016C119.147 66.608 118.547 66.404 117.791 66.404C117.167 66.404 116.627 66.596 116.171 66.98C115.727 67.364 115.433 67.88 115.289 68.528Z" fill="white"/>
</svg>
