<svg width="210" height="73" viewBox="0 0 210 73" fill="none" xmlns="http://www.w3.org/2000/svg">
<path d="M10 12L8.6 10.55L12.15 7H0V5H12.15L8.6 1.45L10 0L16 6L10 12Z" fill="white"/>
<path d="M10 40L8.6 38.55L12.15 35H0V33H12.15L8.6 29.45L10 28L16 34L10 40Z" fill="white"/>
<path d="M10 68L8.6 66.55L12.15 63H0V61H12.15L8.6 57.45L10 56L16 62L10 68Z" fill="white"/>
<path d="M43.362 14.288C41.454 14.288 39.858 13.646 38.574 12.362C37.302 11.078 36.666 9.476 36.666 7.556C36.666 5.636 37.302 4.04 38.574 2.768C39.846 1.472 41.442 0.823999 43.362 0.823999C45.306 0.823999 46.884 1.526 48.096 2.93L46.908 4.082C45.984 2.966 44.802 2.408 43.362 2.408C41.934 2.408 40.74 2.888 39.78 3.848C38.832 4.796 38.358 6.032 38.358 7.556C38.358 9.08 38.832 10.316 39.78 11.264C40.74 12.224 41.934 12.704 43.362 12.704C44.862 12.704 46.164 12.074 47.268 10.814L48.474 11.984C47.862 12.716 47.112 13.286 46.224 13.694C45.336 14.09 44.382 14.288 43.362 14.288ZM50.9757 11.3C50.9757 11.732 51.1557 12.092 51.5157 12.38C51.8877 12.668 52.3197 12.812 52.8117 12.812C53.5077 12.812 54.1257 12.554 54.6657 12.038C55.2177 11.522 55.4937 10.916 55.4937 10.22C54.9777 9.812 54.2577 9.608 53.3337 9.608C52.6617 9.608 52.0977 9.77 51.6417 10.094C51.1977 10.418 50.9757 10.82 50.9757 11.3ZM53.1177 4.892C54.3417 4.892 55.3077 5.222 56.0157 5.882C56.7237 6.53 57.0777 7.424 57.0777 8.564V14H55.4937V12.776H55.4217C54.7377 13.784 53.8257 14.288 52.6857 14.288C51.7137 14.288 50.8977 14 50.2377 13.424C49.5897 12.848 49.2657 12.128 49.2657 11.264C49.2657 10.352 49.6077 9.626 50.2917 9.086C50.9877 8.546 51.9117 8.276 53.0637 8.276C54.0477 8.276 54.8577 8.456 55.4937 8.816V8.438C55.4937 7.862 55.2657 7.376 54.8097 6.98C54.3537 6.572 53.8197 6.368 53.2077 6.368C52.2837 6.368 51.5517 6.758 51.0117 7.538L49.5537 6.62C50.3577 5.468 51.5457 4.892 53.1177 4.892ZM58.9455 5.18H60.5295V6.404H60.6015C60.8535 5.972 61.2375 5.612 61.7535 5.324C62.2815 5.036 62.8275 4.892 63.3915 4.892C64.4715 4.892 65.2995 5.204 65.8755 5.828C66.4635 6.44 66.7575 7.316 66.7575 8.456V14H65.1015V8.564C65.0655 7.124 64.3395 6.404 62.9235 6.404C62.2635 6.404 61.7115 6.674 61.2675 7.214C60.8235 7.742 60.6015 8.378 60.6015 9.122V14H58.9455V5.18ZM72.6614 12.776C73.4774 12.776 74.1434 12.482 74.6594 11.894C75.1994 11.306 75.4694 10.538 75.4694 9.59C75.4694 8.666 75.1994 7.904 74.6594 7.304C74.1314 6.704 73.4654 6.404 72.6614 6.404C71.8694 6.404 71.2034 6.704 70.6634 7.304C70.1234 7.904 69.8534 8.666 69.8534 9.59C69.8534 10.526 70.1234 11.288 70.6634 11.876C71.2034 12.476 71.8694 12.776 72.6614 12.776ZM72.3914 14.288C71.2394 14.288 70.2494 13.832 69.4214 12.92C68.6054 11.996 68.1974 10.886 68.1974 9.59C68.1974 8.294 68.6054 7.184 69.4214 6.26C70.2494 5.348 71.2394 4.892 72.3914 4.892C73.0394 4.892 73.6274 5.03 74.1554 5.306C74.6954 5.582 75.1094 5.948 75.3974 6.404H75.4694L75.3974 5.18V1.112H77.0534V14H75.4694V12.776H75.3974C75.1094 13.232 74.6954 13.598 74.1554 13.874C73.6274 14.15 73.0394 14.288 72.3914 14.288ZM80.7285 1.112V14H79.0725V1.112H80.7285ZM86.6184 14.288C85.3224 14.288 84.2544 13.844 83.4144 12.956C82.5744 12.068 82.1544 10.946 82.1544 9.59C82.1544 8.246 82.5624 7.13 83.3784 6.242C84.1944 5.342 85.2384 4.892 86.5104 4.892C87.8184 4.892 88.8564 5.318 89.6244 6.17C90.4044 7.01 90.7944 8.192 90.7944 9.716L90.7764 9.896H83.8464C83.8704 10.76 84.1584 11.456 84.7104 11.984C85.2624 12.512 85.9224 12.776 86.6904 12.776C87.7464 12.776 88.5744 12.248 89.1744 11.192L90.6504 11.912C90.2544 12.656 89.7024 13.238 88.9944 13.658C88.2984 14.078 87.5064 14.288 86.6184 14.288ZM83.9724 8.528H89.0304C88.9824 7.916 88.7304 7.412 88.2744 7.016C87.8304 6.608 87.2304 6.404 86.4744 6.404C85.8504 6.404 85.3104 6.596 84.8544 6.98C84.4104 7.364 84.1164 7.88 83.9724 8.528ZM99.1467 11.552C99.1467 12.32 98.8107 12.968 98.1387 13.496C97.4667 14.024 96.6207 14.288 95.6007 14.288C94.7127 14.288 93.9327 14.06 93.2607 13.604C92.5887 13.136 92.1087 12.524 91.8207 11.768L93.2967 11.138C93.5127 11.666 93.8247 12.08 94.2327 12.38C94.6527 12.668 95.1087 12.812 95.6007 12.812C96.1287 12.812 96.5667 12.698 96.9147 12.47C97.2747 12.242 97.4547 11.972 97.4547 11.66C97.4547 11.096 97.0227 10.682 96.1587 10.418L94.6467 10.04C92.9307 9.608 92.0727 8.78 92.0727 7.556C92.0727 6.752 92.3967 6.11 93.0447 5.63C93.7047 5.138 94.5447 4.892 95.5647 4.892C96.3447 4.892 97.0467 5.078 97.6707 5.45C98.3067 5.822 98.7507 6.32 99.0027 6.944L97.5267 7.556C97.3587 7.184 97.0827 6.896 96.6987 6.692C96.3267 6.476 95.9067 6.368 95.4387 6.368C95.0067 6.368 94.6167 6.476 94.2687 6.692C93.9327 6.908 93.7647 7.172 93.7647 7.484C93.7647 7.988 94.2387 8.348 95.1867 8.564L96.5187 8.906C98.2707 9.338 99.1467 10.22 99.1467 11.552ZM103.992 14.144C103.272 14.144 102.672 13.922 102.192 13.478C101.724 13.034 101.484 12.416 101.472 11.624V6.692H99.9242V5.18H101.472V2.48H103.128V5.18H105.288V6.692H103.128V11.084C103.128 11.672 103.242 12.074 103.47 12.29C103.698 12.494 103.956 12.596 104.244 12.596C104.376 12.596 104.502 12.584 104.622 12.56C104.754 12.524 104.874 12.482 104.982 12.434L105.504 13.91C105.072 14.066 104.568 14.144 103.992 14.144ZM109.093 2.138C109.093 2.462 108.979 2.738 108.751 2.966C108.523 3.194 108.247 3.308 107.923 3.308C107.599 3.308 107.323 3.194 107.095 2.966C106.867 2.738 106.753 2.462 106.753 2.138C106.753 1.814 106.867 1.538 107.095 1.31C107.323 1.082 107.599 0.967999 107.923 0.967999C108.247 0.967999 108.523 1.082 108.751 1.31C108.979 1.538 109.093 1.814 109.093 2.138ZM108.751 5.18V14H107.095V5.18H108.751ZM114.851 14.288C113.543 14.288 112.457 13.844 111.593 12.956C110.741 12.044 110.315 10.922 110.315 9.59C110.315 8.234 110.741 7.112 111.593 6.224C112.457 5.336 113.543 4.892 114.851 4.892C115.751 4.892 116.537 5.12 117.209 5.576C117.881 6.02 118.385 6.638 118.721 7.43L117.209 8.06C116.741 6.956 115.919 6.404 114.743 6.404C113.987 6.404 113.333 6.71 112.781 7.322C112.241 7.934 111.971 8.69 111.971 9.59C111.971 10.49 112.241 11.246 112.781 11.858C113.333 12.47 113.987 12.776 114.743 12.776C115.955 12.776 116.807 12.224 117.299 11.12L118.775 11.75C118.451 12.542 117.941 13.166 117.245 13.622C116.561 14.066 115.763 14.288 114.851 14.288ZM127.981 14H125.983L123.229 9.842L121.879 11.174V14H120.223V1.112H121.879V9.05L125.695 5.18H127.819V5.252L124.381 8.672L127.981 13.928V14ZM137.199 12.776C137.991 12.776 138.657 12.476 139.197 11.876C139.737 11.288 140.007 10.526 140.007 9.59C140.007 8.666 139.737 7.904 139.197 7.304C138.657 6.704 137.991 6.404 137.199 6.404C136.395 6.404 135.723 6.704 135.183 7.304C134.655 7.904 134.391 8.666 134.391 9.59C134.391 10.526 134.655 11.294 135.183 11.894C135.723 12.482 136.395 12.776 137.199 12.776ZM137.469 14.288C136.821 14.288 136.227 14.15 135.687 13.874C135.159 13.598 134.751 13.232 134.463 12.776H134.391L134.463 14V17.888H132.807V5.18H134.391V6.404H134.463C134.751 5.948 135.159 5.582 135.687 5.306C136.227 5.03 136.821 4.892 137.469 4.892C138.633 4.892 139.617 5.348 140.421 6.26C141.249 7.184 141.663 8.294 141.663 9.59C141.663 10.898 141.249 12.008 140.421 12.92C139.617 13.832 138.633 14.288 137.469 14.288ZM144.386 11.3C144.386 11.732 144.566 12.092 144.926 12.38C145.298 12.668 145.73 12.812 146.222 12.812C146.918 12.812 147.536 12.554 148.076 12.038C148.628 11.522 148.904 10.916 148.904 10.22C148.388 9.812 147.668 9.608 146.744 9.608C146.072 9.608 145.508 9.77 145.052 10.094C144.608 10.418 144.386 10.82 144.386 11.3ZM146.528 4.892C147.752 4.892 148.718 5.222 149.426 5.882C150.134 6.53 150.488 7.424 150.488 8.564V14H148.904V12.776H148.832C148.148 13.784 147.236 14.288 146.096 14.288C145.124 14.288 144.308 14 143.648 13.424C143 12.848 142.676 12.128 142.676 11.264C142.676 10.352 143.018 9.626 143.702 9.086C144.398 8.546 145.322 8.276 146.474 8.276C147.458 8.276 148.268 8.456 148.904 8.816V8.438C148.904 7.862 148.676 7.376 148.22 6.98C147.764 6.572 147.23 6.368 146.618 6.368C145.694 6.368 144.962 6.758 144.422 7.538L142.964 6.62C143.768 5.468 144.956 4.892 146.528 4.892ZM161.432 14.144C160.712 14.144 160.112 13.922 159.632 13.478C159.164 13.034 158.924 12.416 158.912 11.624V6.692H154.808V11.138C154.808 11.654 154.91 12.026 155.114 12.254C155.33 12.482 155.582 12.596 155.87 12.596C156.146 12.596 156.41 12.542 156.662 12.434L157.184 13.91C156.752 14.066 156.248 14.144 155.672 14.144C154.952 14.144 154.352 13.922 153.872 13.478C153.404 13.034 153.164 12.416 153.152 11.624V6.692H151.604V5.18H153.152V2.48H154.808V5.18H158.912V2.48H160.568V5.18H162.728V6.692H160.568V11.084C160.568 11.672 160.682 12.074 160.91 12.29C161.138 12.494 161.396 12.596 161.684 12.596C161.816 12.596 161.942 12.584 162.062 12.56C162.194 12.524 162.314 12.482 162.422 12.434L162.944 13.91C162.512 14.066 162.008 14.144 161.432 14.144ZM168.181 14.288C166.885 14.288 165.817 13.844 164.977 12.956C164.137 12.068 163.717 10.946 163.717 9.59C163.717 8.246 164.125 7.13 164.941 6.242C165.757 5.342 166.801 4.892 168.073 4.892C169.381 4.892 170.419 5.318 171.187 6.17C171.967 7.01 172.357 8.192 172.357 9.716L172.339 9.896H165.409C165.433 10.76 165.721 11.456 166.273 11.984C166.825 12.512 167.485 12.776 168.253 12.776C169.309 12.776 170.137 12.248 170.737 11.192L172.213 11.912C171.817 12.656 171.265 13.238 170.557 13.658C169.861 14.078 169.069 14.288 168.181 14.288ZM165.535 8.528H170.593C170.545 7.916 170.293 7.412 169.837 7.016C169.393 6.608 168.793 6.404 168.037 6.404C167.413 6.404 166.873 6.596 166.417 6.98C165.973 7.364 165.679 7.88 165.535 8.528ZM175.527 14H173.871V5.18H175.455V6.62H175.527C175.695 6.152 176.037 5.756 176.553 5.432C177.081 5.096 177.597 4.928 178.101 4.928C178.581 4.928 178.989 5 179.325 5.144L178.821 6.746C178.617 6.662 178.293 6.62 177.849 6.62C177.225 6.62 176.679 6.872 176.211 7.376C175.755 7.88 175.527 8.468 175.527 9.14V14ZM180.41 5.18H181.994V6.404H182.066C182.318 5.972 182.702 5.612 183.218 5.324C183.746 5.036 184.292 4.892 184.856 4.892C185.936 4.892 186.764 5.204 187.34 5.828C187.928 6.44 188.222 7.316 188.222 8.456V14H186.566V8.564C186.53 7.124 185.804 6.404 184.388 6.404C183.728 6.404 183.176 6.674 182.732 7.214C182.288 7.742 182.066 8.378 182.066 9.122V14H180.41V5.18ZM196.828 11.552C196.828 12.32 196.492 12.968 195.82 13.496C195.148 14.024 194.302 14.288 193.282 14.288C192.394 14.288 191.614 14.06 190.942 13.604C190.27 13.136 189.79 12.524 189.502 11.768L190.978 11.138C191.194 11.666 191.506 12.08 191.914 12.38C192.334 12.668 192.79 12.812 193.282 12.812C193.81 12.812 194.248 12.698 194.596 12.47C194.956 12.242 195.136 11.972 195.136 11.66C195.136 11.096 194.704 10.682 193.84 10.418L192.328 10.04C190.612 9.608 189.754 8.78 189.754 7.556C189.754 6.752 190.078 6.11 190.726 5.63C191.386 5.138 192.226 4.892 193.246 4.892C194.026 4.892 194.728 5.078 195.352 5.45C195.988 5.822 196.432 6.32 196.684 6.944L195.208 7.556C195.04 7.184 194.764 6.896 194.38 6.692C194.008 6.476 193.588 6.368 193.12 6.368C192.688 6.368 192.298 6.476 191.95 6.692C191.614 6.908 191.446 7.172 191.446 7.484C191.446 7.988 191.92 8.348 192.868 8.564L194.2 8.906C195.952 9.338 196.828 10.22 196.828 11.552ZM45.252 37.562C45.252 38.69 44.838 39.596 44.01 40.28C43.17 40.952 42.15 41.288 40.95 41.288C39.882 41.288 38.94 40.976 38.124 40.352C37.308 39.728 36.744 38.876 36.432 37.796L38.016 37.148C38.124 37.532 38.274 37.88 38.466 38.192C38.658 38.504 38.88 38.774 39.132 39.002C39.396 39.218 39.684 39.392 39.996 39.524C40.308 39.644 40.638 39.704 40.986 39.704C41.742 39.704 42.36 39.512 42.84 39.128C43.32 38.732 43.56 38.21 43.56 37.562C43.56 37.022 43.362 36.56 42.966 36.176C42.594 35.804 41.898 35.444 40.878 35.096C39.846 34.724 39.204 34.472 38.952 34.34C37.584 33.644 36.9 32.618 36.9 31.262C36.9 30.314 37.278 29.504 38.034 28.832C38.802 28.16 39.744 27.824 40.86 27.824C41.844 27.824 42.696 28.076 43.416 28.58C44.136 29.072 44.616 29.69 44.856 30.434L43.308 31.082C43.164 30.602 42.876 30.206 42.444 29.894C42.024 29.57 41.508 29.408 40.896 29.408C40.248 29.408 39.702 29.588 39.258 29.948C38.814 30.284 38.592 30.722 38.592 31.262C38.592 31.706 38.766 32.09 39.114 32.414C39.498 32.738 40.332 33.122 41.616 33.566C42.924 34.01 43.854 34.556 44.406 35.204C44.97 35.84 45.252 36.626 45.252 37.562ZM48.6132 41H46.9572V32.18H48.5412V33.404H48.6132C48.8652 32.972 49.2492 32.612 49.7652 32.324C50.2932 32.036 50.8152 31.892 51.3312 31.892C51.9792 31.892 52.5492 32.042 53.0412 32.342C53.5332 32.642 53.8932 33.056 54.1212 33.584C54.8532 32.456 55.8672 31.892 57.1632 31.892C58.1832 31.892 58.9692 32.204 59.5212 32.828C60.0732 33.452 60.3492 34.34 60.3492 35.492V41H58.6932V35.744C58.6932 34.916 58.5432 34.322 58.2432 33.962C57.9432 33.59 57.4392 33.404 56.7312 33.404C56.0952 33.404 55.5612 33.674 55.1292 34.214C54.6972 34.754 54.4812 35.39 54.4812 36.122V41H52.8252V35.744C52.8252 34.916 52.6752 34.322 52.3752 33.962C52.0752 33.59 51.5712 33.404 50.8632 33.404C50.2272 33.404 49.6932 33.674 49.2612 34.214C48.8292 34.754 48.6132 35.39 48.6132 36.122V41ZM63.4035 38.3C63.4035 38.732 63.5835 39.092 63.9435 39.38C64.3155 39.668 64.7475 39.812 65.2395 39.812C65.9355 39.812 66.5535 39.554 67.0935 39.038C67.6455 38.522 67.9215 37.916 67.9215 37.22C67.4055 36.812 66.6855 36.608 65.7615 36.608C65.0895 36.608 64.5255 36.77 64.0695 37.094C63.6255 37.418 63.4035 37.82 63.4035 38.3ZM65.5455 31.892C66.7695 31.892 67.7355 32.222 68.4435 32.882C69.1515 33.53 69.5055 34.424 69.5055 35.564V41H67.9215V39.776H67.8495C67.1655 40.784 66.2535 41.288 65.1135 41.288C64.1415 41.288 63.3255 41 62.6655 40.424C62.0175 39.848 61.6935 39.128 61.6935 38.264C61.6935 37.352 62.0355 36.626 62.7195 36.086C63.4155 35.546 64.3395 35.276 65.4915 35.276C66.4755 35.276 67.2855 35.456 67.9215 35.816V35.438C67.9215 34.862 67.6935 34.376 67.2375 33.98C66.7815 33.572 66.2475 33.368 65.6355 33.368C64.7115 33.368 63.9795 33.758 63.4395 34.538L61.9815 33.62C62.7855 32.468 63.9735 31.892 65.5455 31.892ZM81.7052 41.144C80.9852 41.144 80.3852 40.922 79.9052 40.478C79.4372 40.034 79.1972 39.416 79.1852 38.624V33.692H77.6372V32.18H79.1852V29.48H80.8412V32.18H83.0012V33.692H80.8412V38.084C80.8412 38.672 80.9552 39.074 81.1832 39.29C81.4112 39.494 81.6692 39.596 81.9572 39.596C82.0892 39.596 82.2152 39.584 82.3352 39.56C82.4672 39.524 82.5872 39.482 82.6952 39.434L83.2172 40.91C82.7852 41.066 82.2812 41.144 81.7052 41.144ZM71.3732 32.18H72.9572V33.62H73.0292C73.5212 32.492 74.5352 31.928 76.0712 31.928L76.4132 31.964V33.692L75.6752 33.62C74.9072 33.62 74.2712 33.86 73.7672 34.34C73.2752 34.808 73.0292 35.408 73.0292 36.14V41H71.3732V32.18ZM90.4911 41H88.8351V28.112H90.4911L94.9731 35.96H95.0451L99.5271 28.112H101.183V41H99.5271V33.35L99.5991 31.19H99.5271L95.4951 38.264H94.5231L90.4911 31.19H90.4191L90.4911 33.35V41ZM102.984 36.59C102.984 35.234 103.41 34.112 104.262 33.224C105.126 32.336 106.212 31.892 107.52 31.892C108.828 31.892 109.908 32.336 110.76 33.224C111.624 34.112 112.056 35.234 112.056 36.59C112.056 37.958 111.624 39.08 110.76 39.956C109.908 40.844 108.828 41.288 107.52 41.288C106.212 41.288 105.126 40.844 104.262 39.956C103.41 39.068 102.984 37.946 102.984 36.59ZM104.64 36.59C104.64 37.538 104.916 38.306 105.468 38.894C106.02 39.482 106.704 39.776 107.52 39.776C108.336 39.776 109.02 39.482 109.572 38.894C110.124 38.306 110.4 37.538 110.4 36.59C110.4 35.654 110.124 34.892 109.572 34.304C109.008 33.704 108.324 33.404 107.52 33.404C106.716 33.404 106.032 33.704 105.468 34.304C104.916 34.892 104.64 35.654 104.64 36.59ZM113.385 32.18H114.969V33.404H115.041C115.293 32.972 115.677 32.612 116.193 32.324C116.721 32.036 117.267 31.892 117.831 31.892C118.911 31.892 119.739 32.204 120.315 32.828C120.903 33.44 121.197 34.316 121.197 35.456V41H119.541V35.564C119.505 34.124 118.779 33.404 117.363 33.404C116.703 33.404 116.151 33.674 115.707 34.214C115.263 34.742 115.041 35.378 115.041 36.122V41H113.385V32.18ZM127.101 41.288C125.805 41.288 124.737 40.844 123.897 39.956C123.057 39.068 122.637 37.946 122.637 36.59C122.637 35.246 123.045 34.13 123.861 33.242C124.677 32.342 125.721 31.892 126.993 31.892C128.301 31.892 129.339 32.318 130.107 33.17C130.887 34.01 131.277 35.192 131.277 36.716L131.259 36.896H124.329C124.353 37.76 124.641 38.456 125.193 38.984C125.745 39.512 126.405 39.776 127.173 39.776C128.229 39.776 129.057 39.248 129.657 38.192L131.133 38.912C130.737 39.656 130.185 40.238 129.477 40.658C128.781 41.078 127.989 41.288 127.101 41.288ZM124.455 35.528H129.513C129.465 34.916 129.213 34.412 128.757 34.016C128.313 33.608 127.713 33.404 126.957 33.404C126.333 33.404 125.793 33.596 125.337 33.98C124.893 34.364 124.599 34.88 124.455 35.528ZM140.499 32.18L134.973 44.888H133.263L135.315 40.442L131.679 32.18H133.479L136.107 38.516H136.143L138.699 32.18H140.499ZM149.855 39.776C150.647 39.776 151.313 39.476 151.853 38.876C152.393 38.288 152.663 37.526 152.663 36.59C152.663 35.666 152.393 34.904 151.853 34.304C151.313 33.704 150.647 33.404 149.855 33.404C149.051 33.404 148.379 33.704 147.839 34.304C147.311 34.904 147.047 35.666 147.047 36.59C147.047 37.526 147.311 38.294 147.839 38.894C148.379 39.482 149.051 39.776 149.855 39.776ZM150.125 41.288C149.477 41.288 148.883 41.15 148.343 40.874C147.815 40.598 147.407 40.232 147.119 39.776H147.047L147.119 41V44.888H145.463V32.18H147.047V33.404H147.119C147.407 32.948 147.815 32.582 148.343 32.306C148.883 32.03 149.477 31.892 150.125 31.892C151.289 31.892 152.273 32.348 153.077 33.26C153.905 34.184 154.319 35.294 154.319 36.59C154.319 37.898 153.905 39.008 153.077 39.92C152.273 40.832 151.289 41.288 150.125 41.288ZM157.042 38.3C157.042 38.732 157.222 39.092 157.582 39.38C157.954 39.668 158.386 39.812 158.878 39.812C159.574 39.812 160.192 39.554 160.732 39.038C161.284 38.522 161.56 37.916 161.56 37.22C161.044 36.812 160.324 36.608 159.4 36.608C158.728 36.608 158.164 36.77 157.708 37.094C157.264 37.418 157.042 37.82 157.042 38.3ZM159.184 31.892C160.408 31.892 161.374 32.222 162.082 32.882C162.79 33.53 163.144 34.424 163.144 35.564V41H161.56V39.776H161.488C160.804 40.784 159.892 41.288 158.752 41.288C157.78 41.288 156.964 41 156.304 40.424C155.656 39.848 155.332 39.128 155.332 38.264C155.332 37.352 155.674 36.626 156.358 36.086C157.054 35.546 157.978 35.276 159.13 35.276C160.114 35.276 160.924 35.456 161.56 35.816V35.438C161.56 34.862 161.332 34.376 160.876 33.98C160.42 33.572 159.886 33.368 159.274 33.368C158.35 33.368 157.618 33.758 157.078 34.538L155.62 33.62C156.424 32.468 157.612 31.892 159.184 31.892ZM174.088 41.144C173.368 41.144 172.768 40.922 172.288 40.478C171.82 40.034 171.58 39.416 171.568 38.624V33.692H167.464V38.138C167.464 38.654 167.566 39.026 167.77 39.254C167.986 39.482 168.238 39.596 168.526 39.596C168.802 39.596 169.066 39.542 169.318 39.434L169.84 40.91C169.408 41.066 168.904 41.144 168.328 41.144C167.608 41.144 167.008 40.922 166.528 40.478C166.06 40.034 165.82 39.416 165.808 38.624V33.692H164.26V32.18H165.808V29.48H167.464V32.18H171.568V29.48H173.224V32.18H175.384V33.692H173.224V38.084C173.224 38.672 173.338 39.074 173.566 39.29C173.794 39.494 174.052 39.596 174.34 39.596C174.472 39.596 174.598 39.584 174.718 39.56C174.85 39.524 174.97 39.482 175.078 39.434L175.6 40.91C175.168 41.066 174.664 41.144 174.088 41.144ZM180.837 41.288C179.541 41.288 178.473 40.844 177.633 39.956C176.793 39.068 176.373 37.946 176.373 36.59C176.373 35.246 176.781 34.13 177.597 33.242C178.413 32.342 179.457 31.892 180.729 31.892C182.037 31.892 183.075 32.318 183.843 33.17C184.623 34.01 185.013 35.192 185.013 36.716L184.995 36.896H178.065C178.089 37.76 178.377 38.456 178.929 38.984C179.481 39.512 180.141 39.776 180.909 39.776C181.965 39.776 182.793 39.248 183.393 38.192L184.869 38.912C184.473 39.656 183.921 40.238 183.213 40.658C182.517 41.078 181.725 41.288 180.837 41.288ZM178.191 35.528H183.249C183.201 34.916 182.949 34.412 182.493 34.016C182.049 33.608 181.449 33.404 180.693 33.404C180.069 33.404 179.529 33.596 179.073 33.98C178.629 34.364 178.335 34.88 178.191 35.528ZM188.184 41H186.528V32.18H188.112V33.62H188.184C188.352 33.152 188.694 32.756 189.21 32.432C189.738 32.096 190.254 31.928 190.758 31.928C191.238 31.928 191.646 32 191.982 32.144L191.478 33.746C191.274 33.662 190.95 33.62 190.506 33.62C189.882 33.62 189.336 33.872 188.868 34.376C188.412 34.88 188.184 35.468 188.184 36.14V41ZM193.067 32.18H194.651V33.404H194.723C194.975 32.972 195.359 32.612 195.875 32.324C196.403 32.036 196.949 31.892 197.513 31.892C198.593 31.892 199.421 32.204 199.997 32.828C200.585 33.44 200.879 34.316 200.879 35.456V41H199.223V35.564C199.187 34.124 198.461 33.404 197.045 33.404C196.385 33.404 195.833 33.674 195.389 34.214C194.945 34.742 194.723 35.378 194.723 36.122V41H193.067V32.18ZM209.485 38.552C209.485 39.32 209.149 39.968 208.477 40.496C207.805 41.024 206.959 41.288 205.939 41.288C205.051 41.288 204.271 41.06 203.599 40.604C202.927 40.136 202.447 39.524 202.159 38.768L203.635 38.138C203.851 38.666 204.163 39.08 204.571 39.38C204.991 39.668 205.447 39.812 205.939 39.812C206.467 39.812 206.905 39.698 207.253 39.47C207.613 39.242 207.793 38.972 207.793 38.66C207.793 38.096 207.361 37.682 206.497 37.418L204.985 37.04C203.269 36.608 202.411 35.78 202.411 34.556C202.411 33.752 202.735 33.11 203.383 32.63C204.043 32.138 204.883 31.892 205.903 31.892C206.683 31.892 207.385 32.078 208.009 32.45C208.645 32.822 209.089 33.32 209.341 33.944L207.865 34.556C207.697 34.184 207.421 33.896 207.037 33.692C206.665 33.476 206.245 33.368 205.777 33.368C205.345 33.368 204.955 33.476 204.607 33.692C204.271 33.908 204.103 34.172 204.103 34.484C204.103 34.988 204.577 35.348 205.525 35.564L206.857 35.906C208.609 36.338 209.485 37.22 209.485 38.552ZM38.952 62.474V68H37.296V55.112H44.82V56.696H38.952V60.926H44.244V62.474H38.952ZM48.3785 56.138C48.3785 56.462 48.2645 56.738 48.0365 56.966C47.8085 57.194 47.5325 57.308 47.2085 57.308C46.8845 57.308 46.6085 57.194 46.3805 56.966C46.1525 56.738 46.0385 56.462 46.0385 56.138C46.0385 55.814 46.1525 55.538 46.3805 55.31C46.6085 55.082 46.8845 54.968 47.2085 54.968C47.5325 54.968 47.8085 55.082 48.0365 55.31C48.2645 55.538 48.3785 55.814 48.3785 56.138ZM48.0365 59.18V68H46.3805V59.18H48.0365ZM54.0637 66.776C54.8797 66.776 55.5457 66.482 56.0617 65.894C56.6017 65.306 56.8717 64.538 56.8717 63.59C56.8717 62.666 56.6017 61.904 56.0617 61.304C55.5337 60.704 54.8677 60.404 54.0637 60.404C53.2717 60.404 52.6057 60.704 52.0657 61.304C51.5257 61.904 51.2557 62.666 51.2557 63.59C51.2557 64.526 51.5257 65.288 52.0657 65.876C52.6057 66.476 53.2717 66.776 54.0637 66.776ZM54.0097 72.176C53.5177 72.176 53.0557 72.11 52.6237 71.978C52.1917 71.858 51.7957 71.684 51.4357 71.456C51.0877 71.228 50.7877 70.958 50.5357 70.646C50.2837 70.334 50.0917 69.986 49.9597 69.602L51.5257 68.954C51.7057 69.47 52.0177 69.884 52.4617 70.196C52.9057 70.508 53.4217 70.664 54.0097 70.664C54.9097 70.664 55.6117 70.394 56.1157 69.854C56.6197 69.314 56.8717 68.57 56.8717 67.622V66.776H56.7997C56.4877 67.244 56.0617 67.616 55.5217 67.892C54.9937 68.156 54.4177 68.288 53.7937 68.288C52.6417 68.288 51.6517 67.838 50.8237 66.938C50.0077 66.014 49.5997 64.898 49.5997 63.59C49.5997 62.282 50.0077 61.172 50.8237 60.26C51.6517 59.348 52.6417 58.892 53.7937 58.892C54.4177 58.892 54.9937 59.03 55.5217 59.306C56.0617 59.57 56.4877 59.936 56.7997 60.404H56.8717V59.18H58.4557V67.622C58.4557 69.038 58.0537 70.148 57.2497 70.952C56.4337 71.768 55.3537 72.176 54.0097 72.176ZM68.1269 68H66.5429V66.776H66.4709C66.2189 67.208 65.8289 67.568 65.3009 67.856C64.7849 68.144 64.2449 68.288 63.6809 68.288C62.6009 68.288 61.7669 67.982 61.1789 67.37C60.6029 66.746 60.3149 65.864 60.3149 64.724V59.18H61.9709V64.616C62.0069 66.056 62.7329 66.776 64.1489 66.776C64.8089 66.776 65.3609 66.512 65.8049 65.984C66.2489 65.444 66.4709 64.802 66.4709 64.058V59.18H68.1269V68ZM71.7988 68H70.1428V59.18H71.7268V60.62H71.7988C71.9668 60.152 72.3088 59.756 72.8248 59.432C73.3528 59.096 73.8688 58.928 74.3728 58.928C74.8528 58.928 75.2608 59 75.5968 59.144L75.0928 60.746C74.8888 60.662 74.5648 60.62 74.1208 60.62C73.4968 60.62 72.9508 60.872 72.4828 61.376C72.0268 61.88 71.7988 62.468 71.7988 63.14V68ZM80.0969 68.288C78.8009 68.288 77.7329 67.844 76.8929 66.956C76.0529 66.068 75.6329 64.946 75.6329 63.59C75.6329 62.246 76.0409 61.13 76.8569 60.242C77.6729 59.342 78.7169 58.892 79.9889 58.892C81.2969 58.892 82.3349 59.318 83.1029 60.17C83.8829 61.01 84.2729 62.192 84.2729 63.716L84.2549 63.896H77.3249C77.3489 64.76 77.6369 65.456 78.1889 65.984C78.7409 66.512 79.4009 66.776 80.1689 66.776C81.2249 66.776 82.0529 66.248 82.6529 65.192L84.1289 65.912C83.7329 66.656 83.1809 67.238 82.4729 67.658C81.7769 68.078 80.9849 68.288 80.0969 68.288ZM77.4509 62.528H82.5089C82.4609 61.916 82.2089 61.412 81.7529 61.016C81.3089 60.608 80.7089 60.404 79.9529 60.404C79.3289 60.404 78.7889 60.596 78.3329 60.98C77.8889 61.364 77.5949 61.88 77.4509 62.528ZM94.0624 66.776C94.8544 66.776 95.5204 66.476 96.0604 65.876C96.6004 65.288 96.8704 64.526 96.8704 63.59C96.8704 62.666 96.6004 61.904 96.0604 61.304C95.5204 60.704 94.8544 60.404 94.0624 60.404C93.2584 60.404 92.5864 60.704 92.0464 61.304C91.5184 61.904 91.2544 62.666 91.2544 63.59C91.2544 64.526 91.5184 65.294 92.0464 65.894C92.5864 66.482 93.2584 66.776 94.0624 66.776ZM94.3324 68.288C93.6844 68.288 93.0904 68.15 92.5504 67.874C92.0224 67.598 91.6144 67.232 91.3264 66.776H91.2544L91.3264 68V71.888H89.6704V59.18H91.2544V60.404H91.3264C91.6144 59.948 92.0224 59.582 92.5504 59.306C93.0904 59.03 93.6844 58.892 94.3324 58.892C95.4964 58.892 96.4804 59.348 97.2844 60.26C98.1124 61.184 98.5264 62.294 98.5264 63.59C98.5264 64.898 98.1124 66.008 97.2844 66.92C96.4804 67.832 95.4964 68.288 94.3324 68.288ZM101.249 65.3C101.249 65.732 101.429 66.092 101.789 66.38C102.161 66.668 102.593 66.812 103.085 66.812C103.781 66.812 104.399 66.554 104.939 66.038C105.491 65.522 105.767 64.916 105.767 64.22C105.251 63.812 104.531 63.608 103.607 63.608C102.935 63.608 102.371 63.77 101.915 64.094C101.471 64.418 101.249 64.82 101.249 65.3ZM103.391 58.892C104.615 58.892 105.581 59.222 106.289 59.882C106.997 60.53 107.351 61.424 107.351 62.564V68H105.767V66.776H105.695C105.011 67.784 104.099 68.288 102.959 68.288C101.987 68.288 101.171 68 100.511 67.424C99.8632 66.848 99.5392 66.128 99.5392 65.264C99.5392 64.352 99.8812 63.626 100.565 63.086C101.261 62.546 102.185 62.276 103.337 62.276C104.321 62.276 105.131 62.456 105.767 62.816V62.438C105.767 61.862 105.539 61.376 105.083 60.98C104.627 60.572 104.093 60.368 103.481 60.368C102.557 60.368 101.825 60.758 101.285 61.538L99.8272 60.62C100.631 59.468 101.819 58.892 103.391 58.892ZM118.295 68.144C117.575 68.144 116.975 67.922 116.495 67.478C116.027 67.034 115.787 66.416 115.775 65.624V60.692H111.671V65.138C111.671 65.654 111.773 66.026 111.977 66.254C112.193 66.482 112.445 66.596 112.733 66.596C113.009 66.596 113.273 66.542 113.525 66.434L114.047 67.91C113.615 68.066 113.111 68.144 112.535 68.144C111.815 68.144 111.215 67.922 110.735 67.478C110.267 67.034 110.027 66.416 110.015 65.624V60.692H108.467V59.18H110.015V56.48H111.671V59.18H115.775V56.48H117.431V59.18H119.591V60.692H117.431V65.084C117.431 65.672 117.545 66.074 117.773 66.29C118.001 66.494 118.259 66.596 118.547 66.596C118.679 66.596 118.805 66.584 118.925 66.56C119.057 66.524 119.177 66.482 119.285 66.434L119.807 67.91C119.375 68.066 118.871 68.144 118.295 68.144ZM125.044 68.288C123.748 68.288 122.68 67.844 121.84 66.956C121 66.068 120.58 64.946 120.58 63.59C120.58 62.246 120.988 61.13 121.804 60.242C122.62 59.342 123.664 58.892 124.936 58.892C126.244 58.892 127.282 59.318 128.05 60.17C128.83 61.01 129.22 62.192 129.22 63.716L129.202 63.896H122.272C122.296 64.76 122.584 65.456 123.136 65.984C123.688 66.512 124.348 66.776 125.116 66.776C126.172 66.776 127 66.248 127.6 65.192L129.076 65.912C128.68 66.656 128.128 67.238 127.42 67.658C126.724 68.078 125.932 68.288 125.044 68.288ZM122.398 62.528H127.456C127.408 61.916 127.156 61.412 126.7 61.016C126.256 60.608 125.656 60.404 124.9 60.404C124.276 60.404 123.736 60.596 123.28 60.98C122.836 61.364 122.542 61.88 122.398 62.528ZM132.391 68H130.735V59.18H132.319V60.62H132.391C132.559 60.152 132.901 59.756 133.417 59.432C133.945 59.096 134.461 58.928 134.965 58.928C135.445 58.928 135.853 59 136.189 59.144L135.685 60.746C135.481 60.662 135.157 60.62 134.713 60.62C134.089 60.62 133.543 60.872 133.075 61.376C132.619 61.88 132.391 62.468 132.391 63.14V68ZM137.274 59.18H138.858V60.404H138.93C139.182 59.972 139.566 59.612 140.082 59.324C140.61 59.036 141.156 58.892 141.72 58.892C142.8 58.892 143.628 59.204 144.204 59.828C144.792 60.44 145.086 61.316 145.086 62.456V68H143.43V62.564C143.394 61.124 142.668 60.404 141.252 60.404C140.592 60.404 140.04 60.674 139.596 61.214C139.152 61.742 138.93 62.378 138.93 63.122V68H137.274V59.18ZM153.692 65.552C153.692 66.32 153.356 66.968 152.684 67.496C152.012 68.024 151.166 68.288 150.146 68.288C149.258 68.288 148.478 68.06 147.806 67.604C147.134 67.136 146.654 66.524 146.366 65.768L147.842 65.138C148.058 65.666 148.37 66.08 148.778 66.38C149.198 66.668 149.654 66.812 150.146 66.812C150.674 66.812 151.112 66.698 151.46 66.47C151.82 66.242 152 65.972 152 65.66C152 65.096 151.568 64.682 150.704 64.418L149.192 64.04C147.476 63.608 146.618 62.78 146.618 61.556C146.618 60.752 146.942 60.11 147.59 59.63C148.25 59.138 149.09 58.892 150.11 58.892C150.89 58.892 151.592 59.078 152.216 59.45C152.852 59.822 153.296 60.32 153.548 60.944L152.072 61.556C151.904 61.184 151.628 60.896 151.244 60.692C150.872 60.476 150.452 60.368 149.984 60.368C149.552 60.368 149.162 60.476 148.814 60.692C148.478 60.908 148.31 61.172 148.31 61.484C148.31 61.988 148.784 62.348 149.732 62.564L151.064 62.906C152.816 63.338 153.692 64.22 153.692 65.552Z" fill="white"/>
</svg>
