<svg width="75" height="70" viewBox="0 0 75 70" fill="none" xmlns="http://www.w3.org/2000/svg">
<g clip-path="url(#clip0_106_823)">
<path d="M20.6185 9.11341C22.0309 7.50517 23.3299 6.14434 24.567 4.9897C3.6804 4.3196 9.76287 19.4227 2.91751 34.7526C-4.91754 52.4227 3.84534 59.1546 16.8969 61.2577C15.0743 59.0859 13.587 56.6534 12.4845 54.0412C4.06184 43.3918 7.47421 23.9794 20.6185 9.11341Z" fill="#EFE812"/>
<path d="M70.8763 27.9381C68.4098 34.3909 64.8413 40.3663 60.3299 45.5979C56.7132 49.9933 52.381 53.747 47.5155 56.701C41.8649 60.2816 35.2974 62.1473 28.6083 62.0722C24.7029 62.1073 20.8008 61.835 16.9382 61.2577C19.0828 63.8195 21.7415 65.9023 24.7423 67.3711C43.6289 76.5052 44.8145 59.5464 64.7938 50.9381C76.0103 46.1031 76.0516 36.6598 70.866 27.9381" fill="#EDE70A"/>
<path d="M47.5155 10.3093C50.2497 10.7878 52.8842 11.7218 55.3093 13.0722C61.6624 16.6442 67.0155 21.7563 70.8763 27.9381C74.2784 18.3505 72.6907 10.8247 65.2577 9.46392C57.0722 7.96907 50.6804 7.48454 44.5361 3.19588C36.9691 -2.06186 30.3299 -0.350515 24.5773 5L25.8248 5.05155C33.8041 5.52577 41.433 7.1134 47.4742 10.2887" fill="#EDE70A"/>
<path d="M20.6185 9.11341C7.47421 23.9794 4.06184 43.3918 12.5258 54.0412C10.5678 49.4184 9.71333 44.4032 10.0301 39.3928C10.3468 34.3825 11.826 29.5147 14.3505 25.1753C21.4742 13.299 35.7732 8.14434 47.5154 10.3093C41.433 7.09279 33.8041 5.5464 25.866 5.07217L24.6185 5.01031C23.3402 6.18557 22.0412 7.50516 20.6185 9.11341Z" fill="#DEC21C"/>
<path d="M55.3093 13.0515C52.8828 11.7083 50.2484 10.7814 47.5154 10.3093C55.5154 14.5155 60.8247 21.6495 60.8247 32.9278C60.7784 37.6887 59.5351 42.3615 57.2092 46.5159C54.8834 50.6703 51.5499 54.1728 47.5154 56.701C52.3833 53.7502 56.716 49.996 60.3299 45.5979C64.8413 40.3663 68.4097 34.3909 70.8763 27.9381C67.0181 21.7487 61.6648 16.6294 55.3093 13.0515Z" fill="#E5CB22"/>
<path d="M47.5154 10.3093C35.7732 8.14433 21.4742 13.299 14.3505 25.1237C11.8154 29.4687 10.3303 34.3459 10.0135 39.3664C9.69672 44.3869 10.557 49.412 12.5258 54.0412C13.6243 56.6554 15.1119 59.0884 16.9381 61.2577C20.8008 61.835 24.7029 62.1073 28.6082 62.0722C35.2974 62.1473 41.8648 60.2816 47.5154 56.701C51.5505 54.1735 54.8846 50.6712 57.2105 46.5166C59.5364 42.362 60.7793 37.6889 60.8247 32.9278C60.8247 21.6495 55.5154 14.5155 47.5154 10.3093ZM46.1959 51.3402C41.853 54.1297 36.5823 55.0861 31.5363 54.0004C26.4902 52.9147 22.0793 49.8752 19.268 45.5464C13.433 36.5464 16.3196 24.9278 25.0722 18.7423C34.866 11.7835 47.4227 14.5258 52 24.5361C56.4639 34.2887 55.2371 45.5567 46.1959 51.3402Z" fill="#CCA727"/>
</g>
<defs>
<clipPath id="clip0_106_823">
<rect width="74.2062" height="70" fill="white"/>
</clipPath>
</defs>
</svg>
