<svg width="446" height="98" viewBox="0 0 446 98" fill="none" xmlns="http://www.w3.org/2000/svg">
<rect x="106" y="12.0615" width="3" height="73.8769" fill="white"/>
<rect x="99" y="19.6" width="17" height="46.7385" fill="white"/>
<rect x="403" y="12.0615" width="3" height="73.8769" fill="white"/>
<rect x="396" y="19.6" width="17" height="46.7385" fill="white"/>
<rect x="139" y="18.0923" width="3" height="73.8769" fill="white"/>
<rect x="132" y="32.4154" width="17" height="46.7385" fill="white"/>
<rect x="370" y="18.0923" width="3" height="73.8769" fill="white"/>
<rect x="363" y="32.4154" width="17" height="46.7385" fill="white"/>
<rect x="172" y="24.123" width="3" height="73.8769" fill="white"/>
<rect x="165" y="49" width="17" height="32.4154" fill="white"/>
<rect x="73" y="24.123" width="3" height="73.8769" fill="white"/>
<rect x="66" y="49" width="17" height="32.4154" fill="white"/>
<rect x="40" y="39" width="3" height="59" fill="white"/>
<rect x="33" y="61" width="17" height="32.4154" fill="white"/>
<rect x="7" y="54" width="3" height="44" fill="white"/>
<rect y="74" width="17" height="19" fill="white"/>
<rect x="337" y="24.123" width="3" height="73.8769" fill="white"/>
<rect x="330" y="49" width="17" height="32.4154" fill="white"/>
<rect x="205" y="12.0615" width="3" height="73.8769" fill="white"/>
<rect x="198" y="40.7077" width="17" height="36.1846" fill="white"/>
<rect x="304" y="12.0615" width="3" height="73.8769" fill="white"/>
<rect x="297" y="40.7077" width="17" height="36.1846" fill="white"/>
<rect x="238" width="3" height="73.8769" fill="white"/>
<rect x="231" y="19.6" width="17" height="37.6923" fill="white"/>
<rect x="436" width="3" height="73.8769" fill="white"/>
<rect x="429" y="19.6" width="17" height="37.6923" fill="white"/>
<rect x="271" y="12.0615" width="3" height="73.8769" fill="white"/>
<rect x="264" y="31.6615" width="17" height="37.6923" fill="white"/>
</svg>
