<svg width="40" height="40" viewBox="0 0 40 40" fill="none" xmlns="http://www.w3.org/2000/svg">
<path d="M40 7.5C40 9.48912 39.2098 11.3968 37.8033 12.8033C36.3968 14.2098 34.4891 15 32.5 15C30.5109 15 28.6032 14.2098 27.1967 12.8033C25.7902 11.3968 25 9.48912 25 7.5C25 5.51088 25.7902 3.60322 27.1967 2.1967C28.6032 0.790177 30.5109 0 32.5 0C34.4891 0 36.3968 0.790177 37.8033 2.1967C39.2098 3.60322 40 5.51088 40 7.5Z" fill="white"/>
<path d="M20 5H0V40H35V20H30V35H5V10H20V5Z" fill="white"/>
</svg>
